# xmcd CD database file
#
# Track frame offsets:
#	150
#	12171
#	24321
#	37057
#	49779
#	61197
#	74384
#	86979
#	99982
#	112696
#
# Disc length: 1670 seconds
#
# Revision: 0
# Processed by: cddbd v1.5.2PL0 Copyright (c) Steve Scherf et al.
# Submitted via: CDex 1.70beta2
#
DISCID=7706840a
DTITLE=Hank Williams - The Very Best Of Hank Williams - v2
DYEAR=1900
DGENRE=Country
TTITLE0=A Mansion On The Hill
TTITLE1=Take These Chains From My Heart
TTITLE2=I Saw The Light
TTITLE3=Honky Tonkin'
TTITLE4=Crazy Heart
TTITLE5=I Can't Get You Off Of My Mind
TTITLE6=Fly Trouble
TTITLE7=Pan American
TTITLE8=I Won't Be Home No More
TTITLE9=Half As Much
EXTD=
EXTT0=
EXTT1=
EXTT2=
EXTT3=
EXTT4=
EXTT5=
EXTT6=
EXTT7=
EXTT8=
EXTT9=
PLAYORDER=
